%TF.GenerationSoftware,KiCad,Pcbnew,7.0.6-1.fc38*%
%TF.CreationDate,2023-08-06T10:31:57+03:00*%
%TF.ProjectId,stm32-breakout,73746d33-322d-4627-9265-616b6f75742e,v.1.0*%
%TF.SameCoordinates,Original*%
%TF.FileFunction,Copper,L2,Bot*%
%TF.FilePolarity,Positive*%
%FSLAX46Y46*%
G04 Gerber Fmt 4.6, Leading zero omitted, Abs format (unit mm)*
G04 Created by KiCad (PCBNEW 7.0.6-1.fc38) date 2023-08-06 10:31:57*
%MOMM*%
%LPD*%
G01*
G04 APERTURE LIST*
%TA.AperFunction,ComponentPad*%
%ADD10O,1.800000X1.150000*%
%TD*%
%TA.AperFunction,ComponentPad*%
%ADD11O,2.000000X1.450000*%
%TD*%
%TA.AperFunction,ComponentPad*%
%ADD12R,1.700000X1.700000*%
%TD*%
%TA.AperFunction,ComponentPad*%
%ADD13O,1.700000X1.700000*%
%TD*%
%TA.AperFunction,ViaPad*%
%ADD14C,0.800000*%
%TD*%
%TA.AperFunction,ViaPad*%
%ADD15C,0.700000*%
%TD*%
%TA.AperFunction,Conductor*%
%ADD16C,0.250000*%
%TD*%
G04 APERTURE END LIST*
D10*
%TO.P,J1,6,Shield*%
%TO.N,unconnected-(J1-Shield-Pad6)*%
X168000000Y-98592500D03*
D11*
X164200000Y-98442500D03*
X164200000Y-90992500D03*
D10*
X168000000Y-90842500D03*
%TD*%
D12*
%TO.P,J2,1,Pin_1*%
%TO.N,+3.3V*%
X162860000Y-79800000D03*
D13*
%TO.P,J2,2,Pin_2*%
%TO.N,GND*%
X160320000Y-79800000D03*
%TO.P,J2,3,Pin_3*%
%TO.N,SWDIO*%
X157780000Y-79800000D03*
%TO.P,J2,4,Pin_4*%
%TO.N,SWCLK*%
X155240000Y-79800000D03*
%TO.P,J2,5,Pin_5*%
%TO.N,PA15*%
X152700000Y-79800000D03*
%TO.P,J2,6,Pin_6*%
%TO.N,SW0*%
X150160000Y-79800000D03*
%TO.P,J2,7,Pin_7*%
%TO.N,PB4*%
X147620000Y-79800000D03*
%TO.P,J2,8,Pin_8*%
%TO.N,PB5*%
X145080000Y-79800000D03*
%TO.P,J2,9,Pin_9*%
%TO.N,PB6*%
X142540000Y-79800000D03*
%TO.P,J2,10,Pin_10*%
%TO.N,PB7*%
X140000000Y-79800000D03*
%TO.P,J2,11,Pin_11*%
%TO.N,PB8*%
X137460000Y-79800000D03*
%TO.P,J2,12,Pin_12*%
%TO.N,PB9*%
X134920000Y-79800000D03*
%TO.P,J2,13,Pin_13*%
%TO.N,PC13*%
X132380000Y-79800000D03*
%TO.P,J2,14,Pin_14*%
%TO.N,PC14*%
X129840000Y-79800000D03*
%TO.P,J2,15,Pin_15*%
%TO.N,PC15*%
X127300000Y-79800000D03*
%TD*%
D12*
%TO.P,J3,1,Pin_1*%
%TO.N,+3.3V*%
X162820000Y-112000000D03*
D13*
%TO.P,J3,2,Pin_2*%
%TO.N,GND*%
X160280000Y-112000000D03*
%TO.P,J3,3,Pin_3*%
%TO.N,PA10*%
X157740000Y-112000000D03*
%TO.P,J3,4,Pin_4*%
%TO.N,PA9*%
X155200000Y-112000000D03*
%TO.P,J3,5,Pin_5*%
%TO.N,PA8*%
X152660000Y-112000000D03*
%TO.P,J3,6,Pin_6*%
%TO.N,PB11*%
X150120000Y-112000000D03*
%TO.P,J3,7,Pin_7*%
%TO.N,PB10*%
X147580000Y-112000000D03*
%TO.P,J3,8,Pin_8*%
%TO.N,PB2*%
X145040000Y-112000000D03*
%TO.P,J3,9,Pin_9*%
%TO.N,PB1*%
X142500000Y-112000000D03*
%TO.P,J3,10,Pin_10*%
%TO.N,PB0*%
X139960000Y-112000000D03*
%TO.P,J3,11,Pin_11*%
%TO.N,PA7*%
X137420000Y-112000000D03*
%TO.P,J3,12,Pin_12*%
%TO.N,PA6*%
X134880000Y-112000000D03*
%TO.P,J3,13,Pin_13*%
%TO.N,PA5*%
X132340000Y-112000000D03*
%TO.P,J3,14,Pin_14*%
%TO.N,PA4*%
X129800000Y-112000000D03*
%TO.P,J3,15,Pin_15*%
%TO.N,PA3*%
X127260000Y-112000000D03*
%TD*%
D14*
%TO.N,GND*%
X139300000Y-93300000D03*
X165317500Y-93417500D03*
X143750000Y-99000000D03*
X132200000Y-100400000D03*
X130600000Y-104400000D03*
X133800000Y-96700000D03*
X135800000Y-91800000D03*
X141900000Y-88200000D03*
X160500000Y-102100000D03*
X132100000Y-91600000D03*
X167000000Y-105200000D03*
X138900000Y-97000000D03*
D15*
X159700000Y-105200000D03*
D14*
X163000000Y-93300000D03*
X148200000Y-94100000D03*
X158750000Y-103900000D03*
X137000000Y-88500000D03*
%TD*%
D16*
%TO.N,unconnected-(J1-Shield-Pad6)*%
X167850000Y-90992500D02*
X168000000Y-90842500D01*
X168000000Y-98592500D02*
X164350000Y-98592500D01*
X164350000Y-98592500D02*
X164200000Y-98442500D01*
X164200000Y-90992500D02*
X167850000Y-90992500D01*
X164200000Y-90992500D02*
X164200000Y-98442500D01*
%TD*%
%TA.AperFunction,Conductor*%
%TO.N,GND*%
G36*
X167152124Y-77201457D02*
G01*
X167198210Y-77200535D01*
X167201769Y-77200566D01*
X167312890Y-77204779D01*
X167496621Y-77212559D01*
X167503381Y-77213221D01*
X167641489Y-77234503D01*
X167797445Y-77260658D01*
X167803562Y-77262006D01*
X167943437Y-77300402D01*
X168090358Y-77344247D01*
X168095769Y-77346139D01*
X168232477Y-77401201D01*
X168371219Y-77462140D01*
X168375866Y-77464419D01*
X168450645Y-77505067D01*
X168506481Y-77535418D01*
X168534936Y-77552386D01*
X168635998Y-77612650D01*
X168639910Y-77615187D01*
X168760940Y-77700301D01*
X168763350Y-77702084D01*
X168880965Y-77793658D01*
X168884117Y-77796284D01*
X168994789Y-77894908D01*
X168997363Y-77897338D01*
X169102659Y-78002634D01*
X169105090Y-78005209D01*
X169203707Y-78115872D01*
X169206340Y-78119033D01*
X169297903Y-78236633D01*
X169299697Y-78239058D01*
X169384811Y-78360088D01*
X169387348Y-78364000D01*
X169464578Y-78493512D01*
X169535569Y-78624113D01*
X169537863Y-78628792D01*
X169572510Y-78707671D01*
X169598804Y-78767536D01*
X169610015Y-78795371D01*
X169653853Y-78904212D01*
X169655754Y-78909649D01*
X169699598Y-79056563D01*
X169737985Y-79196408D01*
X169739343Y-79202569D01*
X169765499Y-79358525D01*
X169786773Y-79496585D01*
X169787441Y-79503401D01*
X169795223Y-79687180D01*
X169799432Y-79798199D01*
X169799464Y-79801788D01*
X169798643Y-79842792D01*
X169799500Y-79851137D01*
X169799500Y-111998237D01*
X169799400Y-112001758D01*
X169793016Y-112114026D01*
X169782082Y-112292540D01*
X169781300Y-112299268D01*
X169757733Y-112436230D01*
X169729421Y-112588772D01*
X169727978Y-112594834D01*
X169687654Y-112732985D01*
X169642267Y-112876724D01*
X169640307Y-112882064D01*
X169583751Y-113016734D01*
X169521839Y-113152375D01*
X169519510Y-113156965D01*
X169447447Y-113285436D01*
X169369797Y-113411936D01*
X169367244Y-113415769D01*
X169281502Y-113534658D01*
X169279702Y-113537032D01*
X169188250Y-113651788D01*
X169185615Y-113654881D01*
X169086802Y-113763448D01*
X169084358Y-113765985D01*
X168979678Y-113868632D01*
X168977094Y-113871025D01*
X168866608Y-113967693D01*
X168863463Y-113970268D01*
X168746944Y-114059446D01*
X168744535Y-114061200D01*
X168623983Y-114144597D01*
X168620101Y-114147074D01*
X168492103Y-114222229D01*
X168362247Y-114291757D01*
X168357613Y-114293997D01*
X168220782Y-114353237D01*
X168085025Y-114407144D01*
X168079646Y-114408998D01*
X167935031Y-114451562D01*
X167796141Y-114489164D01*
X167790052Y-114490488D01*
X167636934Y-114515811D01*
X167499572Y-114536681D01*
X167492834Y-114537332D01*
X167316831Y-114544663D01*
X167201783Y-114548944D01*
X167198237Y-114548975D01*
X167159027Y-114548190D01*
X167150084Y-114549029D01*
X123001745Y-114549029D01*
X122998267Y-114548931D01*
X122884518Y-114542541D01*
X122711145Y-114532052D01*
X122704500Y-114531288D01*
X122640215Y-114520363D01*
X122568132Y-114508113D01*
X122553769Y-114505480D01*
X122418426Y-114480671D01*
X122412433Y-114479262D01*
X122275184Y-114439711D01*
X122133715Y-114395615D01*
X122128431Y-114393701D01*
X121994628Y-114338263D01*
X121860841Y-114278034D01*
X121856304Y-114275763D01*
X121782949Y-114235210D01*
X121728574Y-114205149D01*
X121603513Y-114129524D01*
X121599709Y-114127029D01*
X121481329Y-114043007D01*
X121478969Y-114041247D01*
X121365193Y-113952080D01*
X121362115Y-113949503D01*
X121253717Y-113852597D01*
X121251190Y-113850207D01*
X121149122Y-113748100D01*
X121146733Y-113745572D01*
X121049871Y-113637139D01*
X121047294Y-113634060D01*
X120958176Y-113520258D01*
X120956427Y-113517912D01*
X120872437Y-113399481D01*
X120869943Y-113395676D01*
X120794362Y-113270580D01*
X120723806Y-113142839D01*
X120721532Y-113138291D01*
X120676650Y-113038494D01*
X120661351Y-113004478D01*
X120612958Y-112887552D01*
X120605966Y-112870657D01*
X120604054Y-112865371D01*
X120560005Y-112723861D01*
X120520502Y-112586583D01*
X120519112Y-112580660D01*
X120491725Y-112430933D01*
X120468597Y-112294528D01*
X120467838Y-112287909D01*
X120457417Y-112114581D01*
X120451066Y-112000735D01*
X120451046Y-112000000D01*
X121644341Y-112000000D01*
X121664936Y-112235403D01*
X121664938Y-112235413D01*
X121726094Y-112463655D01*
X121726096Y-112463659D01*
X121726097Y-112463663D01*
X121774005Y-112566401D01*
X121825964Y-112677828D01*
X121825965Y-112677830D01*
X121961505Y-112871402D01*
X122128597Y-113038494D01*
X122322169Y-113174034D01*
X122322171Y-113174035D01*
X122536337Y-113273903D01*
X122764592Y-113335063D01*
X122941034Y-113350500D01*
X123058966Y-113350500D01*
X123235408Y-113335063D01*
X123463663Y-113273903D01*
X123677829Y-113174035D01*
X123871401Y-113038495D01*
X124038495Y-112871401D01*
X124174035Y-112677830D01*
X124273903Y-112463663D01*
X124335063Y-112235408D01*
X124355659Y-112000000D01*
X125904341Y-112000000D01*
X125924936Y-112235403D01*
X125924938Y-112235413D01*
X125986094Y-112463655D01*
X125986096Y-112463659D01*
X125986097Y-112463663D01*
X126066004Y-112635023D01*
X126085965Y-112677830D01*
X126085967Y-112677834D01*
X126194281Y-112832521D01*
X126221505Y-112871401D01*
X126388599Y-113038495D01*
X126484088Y-113105357D01*
X126582165Y-113174032D01*
X126582167Y-113174033D01*
X126582170Y-113174035D01*
X126796337Y-113273903D01*
X127024592Y-113335063D01*
X127201034Y-113350500D01*
X127259999Y-113355659D01*
X127260000Y-113355659D01*
X127260001Y-113355659D01*
X127318966Y-113350500D01*
X127495408Y-113335063D01*
X127723663Y-113273903D01*
X127937830Y-113174035D01*
X128131401Y-113038495D01*
X128298495Y-112871401D01*
X128428426Y-112685840D01*
X128483001Y-112642217D01*
X128552499Y-112635023D01*
X128614854Y-112666546D01*
X128631574Y-112685841D01*
X128761505Y-112871401D01*
X128928599Y-113038495D01*
X129024088Y-113105357D01*
X129122165Y-113174032D01*
X129122167Y-113174033D01*
X129122170Y-113174035D01*
X129336337Y-113273903D01*
X129564592Y-113335063D01*
X129741034Y-113350500D01*
X129799999Y-113355659D01*
X129800000Y-113355659D01*
X129800001Y-113355659D01*
X129858966Y-113350500D01*
X130035408Y-113335063D01*
X130263663Y-113273903D01*
X130477830Y-113174035D01*
X130671401Y-113038495D01*
X130838495Y-112871401D01*
X130968426Y-112685840D01*
X131023001Y-112642217D01*
X131092499Y-112635023D01*
X131154854Y-112666546D01*
X131171574Y-112685841D01*
X131301505Y-112871401D01*
X131468599Y-113038495D01*
X131564088Y-113105357D01*
X131662165Y-113174032D01*
X131662167Y-113174033D01*
X131662170Y-113174035D01*
X131876337Y-113273903D01*
X132104592Y-113335063D01*
X132281034Y-113350500D01*
X132339999Y-113355659D01*
X132340000Y-113355659D01*
X132340001Y-113355659D01*
X132398966Y-113350500D01*
X132575408Y-113335063D01*
X132803663Y-113273903D01*
X133017830Y-113174035D01*
X133211401Y-113038495D01*
X133378495Y-112871401D01*
X133508426Y-112685840D01*
X133563001Y-112642217D01*
X133632499Y-112635023D01*
X133694854Y-112666546D01*
X133711574Y-112685841D01*
X133841505Y-112871401D01*
X134008599Y-113038495D01*
X134104088Y-113105357D01*
X134202165Y-113174032D01*
X134202167Y-113174033D01*
X134202170Y-113174035D01*
X134416337Y-113273903D01*
X134644592Y-113335063D01*
X134821034Y-113350500D01*
X134879999Y-113355659D01*
X134880000Y-113355659D01*
X134880001Y-113355659D01*
X134938966Y-113350500D01*
X135115408Y-113335063D01*
X135343663Y-113273903D01*
X135557830Y-113174035D01*
X135751401Y-113038495D01*
X135918495Y-112871401D01*
X136048426Y-112685841D01*
X136103002Y-112642217D01*
X136172500Y-112635023D01*
X136234855Y-112666546D01*
X136251575Y-112685842D01*
X136381500Y-112871395D01*
X136381505Y-112871401D01*
X136548599Y-113038495D01*
X136644088Y-113105357D01*
X136742165Y-113174032D01*
X136742167Y-113174033D01*
X136742170Y-113174035D01*
X136956337Y-113273903D01*
X137184592Y-113335063D01*
X137361034Y-113350500D01*
X137419999Y-113355659D01*
X137420000Y-113355659D01*
X137420001Y-113355659D01*
X137478966Y-113350500D01*
X137655408Y-113335063D01*
X137883663Y-113273903D01*
X138097830Y-113174035D01*
X138291401Y-113038495D01*
X138458495Y-112871401D01*
X138588426Y-112685841D01*
X138643002Y-112642217D01*
X138712500Y-112635023D01*
X138774855Y-112666546D01*
X138791575Y-112685842D01*
X138921500Y-112871395D01*
X138921505Y-112871401D01*
X139088599Y-113038495D01*
X139184088Y-113105357D01*
X139282165Y-113174032D01*
X139282167Y-113174033D01*
X139282170Y-113174035D01*
X139496337Y-113273903D01*
X139724592Y-113335063D01*
X139901034Y-113350500D01*
X139959999Y-113355659D01*
X139960000Y-113355659D01*
X139960001Y-113355659D01*
X140018966Y-113350500D01*
X140195408Y-113335063D01*
X140423663Y-113273903D01*
X140637830Y-113174035D01*
X140831401Y-113038495D01*
X140998495Y-112871401D01*
X141128426Y-112685841D01*
X141183002Y-112642217D01*
X141252500Y-112635023D01*
X141314855Y-112666546D01*
X141331575Y-112685842D01*
X141461500Y-112871395D01*
X141461505Y-112871401D01*
X141628599Y-113038495D01*
X141724088Y-113105357D01*
X141822165Y-113174032D01*
X141822167Y-113174033D01*
X141822170Y-113174035D01*
X142036337Y-113273903D01*
X142264592Y-113335063D01*
X142441034Y-113350500D01*
X142499999Y-113355659D01*
X142500000Y-113355659D01*
X142500001Y-113355659D01*
X142558966Y-113350500D01*
X142735408Y-113335063D01*
X142963663Y-113273903D01*
X143177830Y-113174035D01*
X143371401Y-113038495D01*
X143538495Y-112871401D01*
X143668426Y-112685841D01*
X143723002Y-112642217D01*
X143792500Y-112635023D01*
X143854855Y-112666546D01*
X143871575Y-112685842D01*
X144001500Y-112871395D01*
X144001505Y-112871401D01*
X144168599Y-113038495D01*
X144264088Y-113105357D01*
X144362165Y-113174032D01*
X144362167Y-113174033D01*
X144362170Y-113174035D01*
X144576337Y-113273903D01*
X144804592Y-113335063D01*
X144981034Y-113350500D01*
X145039999Y-113355659D01*
X145040000Y-113355659D01*
X145040001Y-113355659D01*
X145098966Y-113350500D01*
X145275408Y-113335063D01*
X145503663Y-113273903D01*
X145717830Y-113174035D01*
X145911401Y-113038495D01*
X146078495Y-112871401D01*
X146208426Y-112685841D01*
X146263002Y-112642217D01*
X146332500Y-112635023D01*
X146394855Y-112666546D01*
X146411575Y-112685842D01*
X146541500Y-112871395D01*
X146541505Y-112871401D01*
X146708599Y-113038495D01*
X146804088Y-113105357D01*
X146902165Y-113174032D01*
X146902167Y-113174033D01*
X146902170Y-113174035D01*
X147116337Y-113273903D01*
X147344592Y-113335063D01*
X147521034Y-113350500D01*
X147579999Y-113355659D01*
X147580000Y-113355659D01*
X147580001Y-113355659D01*
X147638966Y-113350500D01*
X147815408Y-113335063D01*
X148043663Y-113273903D01*
X148257830Y-113174035D01*
X148451401Y-113038495D01*
X148618495Y-112871401D01*
X148748426Y-112685841D01*
X148803002Y-112642217D01*
X148872500Y-112635023D01*
X148934855Y-112666546D01*
X148951575Y-112685842D01*
X149081500Y-112871395D01*
X149081505Y-112871401D01*
X149248599Y-113038495D01*
X149344088Y-113105357D01*
X149442165Y-113174032D01*
X149442167Y-113174033D01*
X149442170Y-113174035D01*
X149656337Y-113273903D01*
X149884592Y-113335063D01*
X150061034Y-113350500D01*
X150119999Y-113355659D01*
X150120000Y-113355659D01*
X150120001Y-113355659D01*
X150178966Y-113350500D01*
X150355408Y-113335063D01*
X150583663Y-113273903D01*
X150797830Y-113174035D01*
X150991401Y-113038495D01*
X151158495Y-112871401D01*
X151288426Y-112685841D01*
X151343002Y-112642217D01*
X151412500Y-112635023D01*
X151474855Y-112666546D01*
X151491575Y-112685842D01*
X151621500Y-112871395D01*
X151621505Y-112871401D01*
X151788599Y-113038495D01*
X151884088Y-113105357D01*
X151982165Y-113174032D01*
X151982167Y-113174033D01*
X151982170Y-113174035D01*
X152196337Y-113273903D01*
X152424592Y-113335063D01*
X152601034Y-113350500D01*
X152659999Y-113355659D01*
X152660000Y-113355659D01*
X152660001Y-113355659D01*
X152718966Y-113350500D01*
X152895408Y-113335063D01*
X153123663Y-113273903D01*
X153337830Y-113174035D01*
X153531401Y-113038495D01*
X153698495Y-112871401D01*
X153828426Y-112685841D01*
X153883002Y-112642217D01*
X153952500Y-112635023D01*
X154014855Y-112666546D01*
X154031575Y-112685842D01*
X154161500Y-112871395D01*
X154161505Y-112871401D01*
X154328599Y-113038495D01*
X154424088Y-113105357D01*
X154522165Y-113174032D01*
X154522167Y-113174033D01*
X154522170Y-113174035D01*
X154736337Y-113273903D01*
X154964592Y-113335063D01*
X155141034Y-113350500D01*
X155199999Y-113355659D01*
X155200000Y-113355659D01*
X155200001Y-113355659D01*
X155258966Y-113350500D01*
X155435408Y-113335063D01*
X155663663Y-113273903D01*
X155877830Y-113174035D01*
X156071401Y-113038495D01*
X156238495Y-112871401D01*
X156368426Y-112685841D01*
X156423002Y-112642217D01*
X156492500Y-112635023D01*
X156554855Y-112666546D01*
X156571575Y-112685842D01*
X156701500Y-112871395D01*
X156701505Y-112871401D01*
X156868599Y-113038495D01*
X156964088Y-113105357D01*
X157062165Y-113174032D01*
X157062167Y-113174033D01*
X157062170Y-113174035D01*
X157276337Y-113273903D01*
X157504592Y-113335063D01*
X157681034Y-113350500D01*
X157739999Y-113355659D01*
X157740000Y-113355659D01*
X157740001Y-113355659D01*
X157798966Y-113350500D01*
X157975408Y-113335063D01*
X158203663Y-113273903D01*
X158417830Y-113174035D01*
X158611401Y-113038495D01*
X158778495Y-112871401D01*
X158908730Y-112685405D01*
X158963307Y-112641781D01*
X159032805Y-112634587D01*
X159095160Y-112666110D01*
X159111879Y-112685405D01*
X159241890Y-112871078D01*
X159408917Y-113038105D01*
X159602421Y-113173600D01*
X159816507Y-113273429D01*
X159816516Y-113273433D01*
X160030000Y-113330634D01*
X160030000Y-112435501D01*
X160137685Y-112484680D01*
X160244237Y-112500000D01*
X160315763Y-112500000D01*
X160422315Y-112484680D01*
X160530000Y-112435501D01*
X160530000Y-113330633D01*
X160743483Y-113273433D01*
X160743492Y-113273429D01*
X160957578Y-113173600D01*
X161151078Y-113038108D01*
X161273133Y-112916053D01*
X161334456Y-112882568D01*
X161404148Y-112887552D01*
X161460082Y-112929423D01*
X161476997Y-112960401D01*
X161526202Y-113092328D01*
X161526206Y-113092335D01*
X161612452Y-113207544D01*
X161612455Y-113207547D01*
X161727664Y-113293793D01*
X161727671Y-113293797D01*
X161862517Y-113344091D01*
X161862516Y-113344091D01*
X161869444Y-113344835D01*
X161922127Y-113350500D01*
X163717872Y-113350499D01*
X163777483Y-113344091D01*
X163912331Y-113293796D01*
X164027546Y-113207546D01*
X164113796Y-113092331D01*
X164164091Y-112957483D01*
X164170500Y-112897873D01*
X164170499Y-112000000D01*
X165844341Y-112000000D01*
X165864936Y-112235403D01*
X165864938Y-112235413D01*
X165926094Y-112463655D01*
X165926096Y-112463659D01*
X165926097Y-112463663D01*
X165974005Y-112566401D01*
X166025964Y-112677828D01*
X166025965Y-112677830D01*
X166161505Y-112871402D01*
X166328597Y-113038494D01*
X166522169Y-113174034D01*
X166522171Y-113174035D01*
X166736337Y-113273903D01*
X166964592Y-113335063D01*
X167141034Y-113350500D01*
X167258966Y-113350500D01*
X167435408Y-113335063D01*
X167663663Y-113273903D01*
X167877829Y-113174035D01*
X168071401Y-113038495D01*
X168238495Y-112871401D01*
X168374035Y-112677830D01*
X168473903Y-112463663D01*
X168535063Y-112235408D01*
X168555659Y-112000000D01*
X168535063Y-111764592D01*
X168473903Y-111536337D01*
X168374035Y-111322171D01*
X168374034Y-111322169D01*
X168238494Y-111128597D01*
X168071402Y-110961505D01*
X167877830Y-110825965D01*
X167877828Y-110825964D01*
X167770746Y-110776030D01*
X167663663Y-110726097D01*
X167663659Y-110726096D01*
X167663655Y-110726094D01*
X167435413Y-110664938D01*
X167435403Y-110664936D01*
X167258966Y-110649500D01*
X167141034Y-110649500D01*
X166964596Y-110664936D01*
X166964586Y-110664938D01*
X166736344Y-110726094D01*
X166736335Y-110726098D01*
X166522171Y-110825964D01*
X166522169Y-110825965D01*
X166328597Y-110961505D01*
X166161506Y-111128597D01*
X166161501Y-111128604D01*
X166025967Y-111322165D01*
X166025965Y-111322169D01*
X165926098Y-111536335D01*
X165926094Y-111536344D01*
X165864938Y-111764586D01*
X165864936Y-111764596D01*
X165844341Y-111999999D01*
X165844341Y-112000000D01*
X164170499Y-112000000D01*
X164170499Y-111102128D01*
X164164091Y-111042517D01*
X164163002Y-111039598D01*
X164113797Y-110907671D01*
X164113793Y-110907664D01*
X164027547Y-110792455D01*
X164027544Y-110792452D01*
X163912335Y-110706206D01*
X163912328Y-110706202D01*
X163777482Y-110655908D01*
X163777483Y-110655908D01*
X163717883Y-110649501D01*
X163717881Y-110649500D01*
X163717873Y-110649500D01*
X163717864Y-110649500D01*
X161922129Y-110649500D01*
X161922123Y-110649501D01*
X161862516Y-110655908D01*
X161727671Y-110706202D01*
X161727664Y-110706206D01*
X161612455Y-110792452D01*
X161612452Y-110792455D01*
X161526206Y-110907664D01*
X161526202Y-110907671D01*
X161476997Y-111039598D01*
X161435126Y-111095532D01*
X161369661Y-111119949D01*
X161301388Y-111105097D01*
X161273134Y-111083946D01*
X161151082Y-110961894D01*
X160957578Y-110826399D01*
X160743492Y-110726570D01*
X160743486Y-110726567D01*
X160530000Y-110669364D01*
X160530000Y-111564498D01*
X160422315Y-111515320D01*
X160315763Y-111500000D01*
X160244237Y-111500000D01*
X160137685Y-111515320D01*
X160030000Y-111564498D01*
X160030000Y-110669364D01*
X160029999Y-110669364D01*
X159816513Y-110726567D01*
X159816507Y-110726570D01*
X159602422Y-110826399D01*
X159602420Y-110826400D01*
X159408926Y-110961886D01*
X159408920Y-110961891D01*
X159241891Y-111128920D01*
X159241890Y-111128922D01*
X159111880Y-111314595D01*
X159057303Y-111358219D01*
X158987804Y-111365412D01*
X158925450Y-111333890D01*
X158908730Y-111314594D01*
X158778494Y-111128597D01*
X158611402Y-110961506D01*
X158611395Y-110961501D01*
X158417834Y-110825967D01*
X158417830Y-110825965D01*
X158417828Y-110825964D01*
X158203663Y-110726097D01*
X158203659Y-110726096D01*
X158203655Y-110726094D01*
X157975413Y-110664938D01*
X157975403Y-110664936D01*
X157740001Y-110644341D01*
X157739999Y-110644341D01*
X157504596Y-110664936D01*
X157504586Y-110664938D01*
X157276344Y-110726094D01*
X157276335Y-110726098D01*
X157062171Y-110825964D01*
X157062169Y-110825965D01*
X156868597Y-110961505D01*
X156701505Y-111128597D01*
X156571575Y-111314158D01*
X156516998Y-111357783D01*
X156447500Y-111364977D01*
X156385145Y-111333454D01*
X156368425Y-111314158D01*
X156238494Y-111128597D01*
X156071402Y-110961506D01*
X156071395Y-110961501D01*
X155877834Y-110825967D01*
X155877830Y-110825965D01*
X155877828Y-110825964D01*
X155663663Y-110726097D01*
X155663659Y-110726096D01*
X155663655Y-110726094D01*
X155435413Y-110664938D01*
X155435403Y-110664936D01*
X155200001Y-110644341D01*
X155199999Y-110644341D01*
X154964596Y-110664936D01*
X154964586Y-110664938D01*
X154736344Y-110726094D01*
X154736335Y-110726098D01*
X154522171Y-110825964D01*
X154522169Y-110825965D01*
X154328597Y-110961505D01*
X154161505Y-111128597D01*
X154031575Y-111314158D01*
X153976998Y-111357783D01*
X153907500Y-111364977D01*
X153845145Y-111333454D01*
X153828425Y-111314158D01*
X153698494Y-111128597D01*
X153531402Y-110961506D01*
X153531395Y-110961501D01*
X153337834Y-110825967D01*
X153337830Y-110825965D01*
X153337828Y-110825964D01*
X153123663Y-110726097D01*
X153123659Y-110726096D01*
X153123655Y-110726094D01*
X152895413Y-110664938D01*
X152895403Y-110664936D01*
X152660001Y-110644341D01*
X152659999Y-110644341D01*
X152424596Y-110664936D01*
X152424586Y-110664938D01*
X152196344Y-110726094D01*
X152196335Y-110726098D01*
X151982171Y-110825964D01*
X151982169Y-110825965D01*
X151788597Y-110961505D01*
X151621505Y-111128597D01*
X151491575Y-111314158D01*
X151436998Y-111357783D01*
X151367500Y-111364977D01*
X151305145Y-111333454D01*
X151288425Y-111314158D01*
X151158494Y-111128597D01*
X150991402Y-110961506D01*
X150991395Y-110961501D01*
X150797834Y-110825967D01*
X150797830Y-110825965D01*
X150797828Y-110825964D01*
X150583663Y-110726097D01*
X150583659Y-110726096D01*
X150583655Y-110726094D01*
X150355413Y-110664938D01*
X150355403Y-110664936D01*
X150120001Y-110644341D01*
X150119999Y-110644341D01*
X149884596Y-110664936D01*
X149884586Y-110664938D01*
X149656344Y-110726094D01*
X149656335Y-110726098D01*
X149442171Y-110825964D01*
X149442169Y-110825965D01*
X149248597Y-110961505D01*
X149081508Y-111128594D01*
X148951574Y-111314159D01*
X148896997Y-111357784D01*
X148827498Y-111364976D01*
X148765144Y-111333454D01*
X148748424Y-111314158D01*
X148618494Y-111128597D01*
X148451402Y-110961506D01*
X148451395Y-110961501D01*
X148257834Y-110825967D01*
X148257830Y-110825965D01*
X148257828Y-110825964D01*
X148043663Y-110726097D01*
X148043659Y-110726096D01*
X148043655Y-110726094D01*
X147815413Y-110664938D01*
X147815403Y-110664936D01*
X147580001Y-110644341D01*
X147579999Y-110644341D01*
X147344596Y-110664936D01*
X147344586Y-110664938D01*
X147116344Y-110726094D01*
X147116335Y-110726098D01*
X146902171Y-110825964D01*
X146902169Y-110825965D01*
X146708597Y-110961505D01*
X146541505Y-111128597D01*
X146411575Y-111314158D01*
X146356998Y-111357783D01*
X146287500Y-111364977D01*
X146225145Y-111333454D01*
X146208425Y-111314158D01*
X146078494Y-111128597D01*
X145911402Y-110961506D01*
X145911395Y-110961501D01*
X145717834Y-110825967D01*
X145717830Y-110825965D01*
X145717828Y-110825964D01*
X145503663Y-110726097D01*
X145503659Y-110726096D01*
X145503655Y-110726094D01*
X145275413Y-110664938D01*
X145275403Y-110664936D01*
X145040001Y-110644341D01*
X145039999Y-110644341D01*
X144804596Y-110664936D01*
X144804586Y-110664938D01*
X144576344Y-110726094D01*
X144576335Y-110726098D01*
X144362171Y-110825964D01*
X144362169Y-110825965D01*
X144168597Y-110961505D01*
X144001505Y-111128597D01*
X143871575Y-111314158D01*
X143816998Y-111357783D01*
X143747500Y-111364977D01*
X143685145Y-111333454D01*
X143668425Y-111314158D01*
X143538494Y-111128597D01*
X143371402Y-110961506D01*
X143371395Y-110961501D01*
X143177834Y-110825967D01*
X143177830Y-110825965D01*
X143177828Y-110825964D01*
X142963663Y-110726097D01*
X142963659Y-110726096D01*
X142963655Y-110726094D01*
X142735413Y-110664938D01*
X142735403Y-110664936D01*
X142500001Y-110644341D01*
X142499999Y-110644341D01*
X142264596Y-110664936D01*
X142264586Y-110664938D01*
X142036344Y-110726094D01*
X142036335Y-110726098D01*
X141822171Y-110825964D01*
X141822169Y-110825965D01*
X141628597Y-110961505D01*
X141461505Y-111128597D01*
X141331575Y-111314158D01*
X141276998Y-111357783D01*
X141207500Y-111364977D01*
X141145145Y-111333454D01*
X141128425Y-111314158D01*
X140998494Y-111128597D01*
X140831402Y-110961506D01*
X140831395Y-110961501D01*
X140637834Y-110825967D01*
X140637830Y-110825965D01*
X140637828Y-110825964D01*
X140423663Y-110726097D01*
X140423659Y-110726096D01*
X140423655Y-110726094D01*
X140195413Y-110664938D01*
X140195403Y-110664936D01*
X139960001Y-110644341D01*
X139959999Y-110644341D01*
X139724596Y-110664936D01*
X139724586Y-110664938D01*
X139496344Y-110726094D01*
X139496335Y-110726098D01*
X139282171Y-110825964D01*
X139282169Y-110825965D01*
X139088597Y-110961505D01*
X138921505Y-111128597D01*
X138791575Y-111314158D01*
X138736998Y-111357783D01*
X138667500Y-111364977D01*
X138605145Y-111333454D01*
X138588425Y-111314158D01*
X138458494Y-111128597D01*
X138291402Y-110961506D01*
X138291395Y-110961501D01*
X138097834Y-110825967D01*
X138097830Y-110825965D01*
X138097828Y-110825964D01*
X137883663Y-110726097D01*
X137883659Y-110726096D01*
X137883655Y-110726094D01*
X137655413Y-110664938D01*
X137655403Y-110664936D01*
X137420001Y-110644341D01*
X137419999Y-110644341D01*
X137184596Y-110664936D01*
X137184586Y-110664938D01*
X136956344Y-110726094D01*
X136956335Y-110726098D01*
X136742171Y-110825964D01*
X136742169Y-110825965D01*
X136548597Y-110961505D01*
X136381505Y-111128597D01*
X136251575Y-111314158D01*
X136196998Y-111357783D01*
X136127500Y-111364977D01*
X136065145Y-111333454D01*
X136048425Y-111314158D01*
X135918494Y-111128597D01*
X135751402Y-110961506D01*
X135751395Y-110961501D01*
X135557834Y-110825967D01*
X135557830Y-110825965D01*
X135557828Y-110825964D01*
X135343663Y-110726097D01*
X135343659Y-110726096D01*
X135343655Y-110726094D01*
X135115413Y-110664938D01*
X135115403Y-110664936D01*
X134880001Y-110644341D01*
X134879999Y-110644341D01*
X134644596Y-110664936D01*
X134644586Y-110664938D01*
X134416344Y-110726094D01*
X134416335Y-110726098D01*
X134202171Y-110825964D01*
X134202169Y-110825965D01*
X134008597Y-110961505D01*
X133841505Y-111128597D01*
X133711575Y-111314158D01*
X133656998Y-111357783D01*
X133587500Y-111364977D01*
X133525145Y-111333454D01*
X133508425Y-111314158D01*
X133378494Y-111128597D01*
X133211402Y-110961506D01*
X133211395Y-110961501D01*
X133017834Y-110825967D01*
X133017830Y-110825965D01*
X133017828Y-110825964D01*
X132803663Y-110726097D01*
X132803659Y-110726096D01*
X132803655Y-110726094D01*
X132575413Y-110664938D01*
X132575403Y-110664936D01*
X132340001Y-110644341D01*
X132339999Y-110644341D01*
X132104596Y-110664936D01*
X132104586Y-110664938D01*
X131876344Y-110726094D01*
X131876335Y-110726098D01*
X131662171Y-110825964D01*
X131662169Y-110825965D01*
X131468597Y-110961505D01*
X131301505Y-111128597D01*
X131171575Y-111314158D01*
X131116998Y-111357783D01*
X131047500Y-111364977D01*
X130985145Y-111333454D01*
X130968425Y-111314158D01*
X130838494Y-111128597D01*
X130671402Y-110961506D01*
X130671395Y-110961501D01*
X130477834Y-110825967D01*
X130477830Y-110825965D01*
X130477828Y-110825964D01*
X130263663Y-110726097D01*
X130263659Y-110726096D01*
X130263655Y-110726094D01*
X130035413Y-110664938D01*
X130035403Y-110664936D01*
X129800001Y-110644341D01*
X129799999Y-110644341D01*
X129564596Y-110664936D01*
X129564586Y-110664938D01*
X129336344Y-110726094D01*
X129336335Y-110726098D01*
X129122171Y-110825964D01*
X129122169Y-110825965D01*
X128928597Y-110961505D01*
X128761505Y-111128597D01*
X128631575Y-111314158D01*
X128576998Y-111357783D01*
X128507500Y-111364977D01*
X128445145Y-111333454D01*
X128428425Y-111314158D01*
X128298494Y-111128597D01*
X128131402Y-110961506D01*
X128131395Y-110961501D01*
X127937834Y-110825967D01*
X127937830Y-110825965D01*
X127937828Y-110825964D01*
X127723663Y-110726097D01*
X127723659Y-110726096D01*
X127723655Y-110726094D01*
X127495413Y-110664938D01*
X127495403Y-110664936D01*
X127260001Y-110644341D01*
X127259999Y-110644341D01*
X127024596Y-110664936D01*
X127024586Y-110664938D01*
X126796344Y-110726094D01*
X126796335Y-110726098D01*
X126582171Y-110825964D01*
X126582169Y-110825965D01*
X126388597Y-110961505D01*
X126221505Y-111128597D01*
X126085965Y-111322169D01*
X126085964Y-111322171D01*
X125986098Y-111536335D01*
X125986094Y-111536344D01*
X125924938Y-111764586D01*
X125924936Y-111764596D01*
X125904341Y-111999999D01*
X125904341Y-112000000D01*
X124355659Y-112000000D01*
X124335063Y-111764592D01*
X124273903Y-111536337D01*
X124174035Y-111322171D01*
X124174034Y-111322169D01*
X124038494Y-111128597D01*
X123871402Y-110961505D01*
X123677830Y-110825965D01*
X123677828Y-110825964D01*
X123570745Y-110776030D01*
X123463663Y-110726097D01*
X123463659Y-110726096D01*
X123463655Y-110726094D01*
X123235413Y-110664938D01*
X123235403Y-110664936D01*
X123058966Y-110649500D01*
X122941034Y-110649500D01*
X122764596Y-110664936D01*
X122764586Y-110664938D01*
X122536344Y-110726094D01*
X122536335Y-110726098D01*
X122322171Y-110825964D01*
X122322169Y-110825965D01*
X122128597Y-110961505D01*
X121961506Y-111128597D01*
X121961501Y-111128604D01*
X121825967Y-111322165D01*
X121825965Y-111322169D01*
X121726098Y-111536335D01*
X121726094Y-111536344D01*
X121664938Y-111764586D01*
X121664936Y-111764596D01*
X121644341Y-111999999D01*
X121644341Y-112000000D01*
X120451046Y-112000000D01*
X120450971Y-111997309D01*
X120450971Y-98497704D01*
X162695786Y-98497704D01*
X162725397Y-98716302D01*
X162725398Y-98716306D01*
X162793564Y-98926100D01*
X162898095Y-99120350D01*
X162898097Y-99120353D01*
X163035634Y-99292820D01*
X163201751Y-99437951D01*
X163201759Y-99437958D01*
X163303559Y-99498781D01*
X163391126Y-99551100D01*
X163597654Y-99628611D01*
X163641063Y-99636488D01*
X163814699Y-99668000D01*
X163814703Y-99668000D01*
X164530025Y-99668000D01*
X164530032Y-99668000D01*
X164684485Y-99654098D01*
X164694707Y-99653179D01*
X164907338Y-99594497D01*
X164907343Y-99594494D01*
X164907350Y-99594493D01*
X165106098Y-99498781D01*
X165284563Y-99369119D01*
X165350642Y-99300006D01*
X165392422Y-99256308D01*
X165452978Y-99221456D01*
X165482048Y-99218000D01*
X166736171Y-99218000D01*
X166803210Y-99237685D01*
X166837178Y-99270073D01*
X166858489Y-99300001D01*
X166858495Y-99300007D01*
X167007147Y-99441746D01*
X167179933Y-99552790D01*
X167284097Y-99594491D01*
X167370618Y-99629129D01*
X167521880Y-99658282D01*
X167572301Y-99668000D01*
X167572302Y-99668000D01*
X168376226Y-99668000D01*
X168376232Y-99668000D01*
X168529466Y-99653368D01*
X168726541Y-99595501D01*
X168909104Y-99501384D01*
X169070556Y-99374416D01*
X169205061Y-99219189D01*
X169205748Y-99218000D01*
X169307757Y-99041314D01*
X169307759Y-99041311D01*
X169374937Y-98847212D01*
X169404168Y-98643907D01*
X169394395Y-98438744D01*
X169345971Y-98239138D01*
X169260647Y-98052304D01*
X169260643Y-98052298D01*
X169141510Y-97884998D01*
X169141504Y-97884992D01*
X168992852Y-97743253D01*
X168820066Y-97632209D01*
X168629391Y-97555874D01*
X168629384Y-97555871D01*
X168629382Y-97555871D01*
X168629379Y-97555870D01*
X168629378Y-97555870D01*
X168427699Y-97517000D01*
X168427698Y-97517000D01*
X167623768Y-97517000D01*
X167470534Y-97531632D01*
X167470530Y-97531633D01*
X167273462Y-97589497D01*
X167090891Y-97683618D01*
X166929446Y-97810581D01*
X166929443Y-97810584D01*
X166830993Y-97924203D01*
X166772215Y-97961977D01*
X166737280Y-97967000D01*
X166065397Y-97967000D01*
X165998358Y-97947315D01*
X165952603Y-97894511D01*
X165942659Y-97825353D01*
X165971684Y-97761797D01*
X165973250Y-97760025D01*
X165982533Y-97749716D01*
X166004650Y-97711406D01*
X166008159Y-97706004D01*
X166034151Y-97670230D01*
X166052136Y-97629833D01*
X166055063Y-97624086D01*
X166077179Y-97585784D01*
X166090842Y-97543728D01*
X166093158Y-97537697D01*
X166111144Y-97497303D01*
X166120336Y-97454051D01*
X166122009Y-97447808D01*
X166135674Y-97405756D01*
X166140295Y-97361783D01*
X166141307Y-97355394D01*
X166150500Y-97312146D01*
X166150500Y-97267945D01*
X166150840Y-97261460D01*
X166151848Y-97251865D01*
X166155460Y-97217500D01*
X166150876Y-97173880D01*
X166150840Y-97173537D01*
X166150500Y-97167053D01*
X166150500Y-97122854D01*
X166141311Y-97079623D01*
X166140295Y-97073209D01*
X166138964Y-97060551D01*
X166135674Y-97029244D01*
X166122011Y-96987198D01*
X166120334Y-96980935D01*
X166118765Y-96973556D01*
X166111144Y-96937697D01*
X166093163Y-96897312D01*
X166090835Y-96891248D01*
X166077179Y-96849216D01*
X166070010Y-96836800D01*
X166055075Y-96810930D01*
X166052127Y-96805144D01*
X166043288Y-96785294D01*
X166034151Y-96764770D01*
X166034149Y-96764767D01*
X166034149Y-96764766D01*
X166008175Y-96729016D01*
X166004638Y-96723570D01*
X165982535Y-96685287D01*
X165982528Y-96685277D01*
X165952954Y-96652434D01*
X165948870Y-96647392D01*
X165922888Y-96611629D01*
X165922887Y-96611628D01*
X165890034Y-96582046D01*
X165885453Y-96577466D01*
X165855871Y-96544612D01*
X165855870Y-96544611D01*
X165855869Y-96544610D01*
X165820119Y-96518637D01*
X165815072Y-96514550D01*
X165782222Y-96484971D01*
X165782212Y-96484964D01*
X165743930Y-96462862D01*
X165738484Y-96459325D01*
X165702736Y-96433353D01*
X165702732Y-96433350D01*
X165702730Y-96433349D01*
X165662349Y-96415370D01*
X165656567Y-96412424D01*
X165618284Y-96390321D01*
X165618281Y-96390320D01*
X165618277Y-96390318D01*
X165576242Y-96376660D01*
X165570179Y-96374333D01*
X165529803Y-96356356D01*
X165486569Y-96347166D01*
X165480301Y-96345487D01*
X165469861Y-96342095D01*
X165438256Y-96331825D01*
X165394291Y-96327204D01*
X165387880Y-96326188D01*
X165344647Y-96317000D01*
X165344646Y-96317000D01*
X165155354Y-96317000D01*
X165155351Y-96317000D01*
X165112119Y-96326188D01*
X165105710Y-96327203D01*
X165061743Y-96331825D01*
X165019705Y-96345485D01*
X165013434Y-96347165D01*
X164975283Y-96355275D01*
X164905616Y-96349960D01*
X164849882Y-96307824D01*
X164825775Y-96242244D01*
X164825500Y-96233985D01*
X164825500Y-93201014D01*
X164845185Y-93133975D01*
X164897989Y-93088220D01*
X164967147Y-93078276D01*
X164975259Y-93079720D01*
X165012268Y-93087585D01*
X165013436Y-93087834D01*
X165019693Y-93089510D01*
X165052509Y-93100173D01*
X165061737Y-93103172D01*
X165061738Y-93103172D01*
X165061744Y-93103174D01*
X165093051Y-93106464D01*
X165105709Y-93107795D01*
X165112123Y-93108811D01*
X165155354Y-93118000D01*
X165155355Y-93118000D01*
X165344643Y-93118000D01*
X165344646Y-93118000D01*
X165387894Y-93108807D01*
X165394283Y-93107795D01*
X165438256Y-93103174D01*
X165480308Y-93089509D01*
X165486551Y-93087836D01*
X165529803Y-93078644D01*
X165570197Y-93060658D01*
X165576228Y-93058342D01*
X165618284Y-93044679D01*
X165656586Y-93022563D01*
X165662333Y-93019636D01*
X165702730Y-93001651D01*
X165738504Y-92975659D01*
X165743906Y-92972150D01*
X165782216Y-92950033D01*
X165815071Y-92920448D01*
X165820098Y-92916376D01*
X165855871Y-92890388D01*
X165885453Y-92857532D01*
X165890032Y-92852953D01*
X165922888Y-92823371D01*
X165948876Y-92787598D01*
X165952948Y-92782571D01*
X165982533Y-92749716D01*
X166004650Y-92711406D01*
X166008159Y-92706004D01*
X166034151Y-92670230D01*
X166052136Y-92629833D01*
X166055063Y-92624086D01*
X166077179Y-92585784D01*
X166090842Y-92543728D01*
X166093158Y-92537697D01*
X166111144Y-92497303D01*
X166120336Y-92454051D01*
X166122009Y-92447808D01*
X166135674Y-92405756D01*
X166140295Y-92361783D01*
X166141307Y-92355394D01*
X166150500Y-92312146D01*
X166150500Y-92267945D01*
X166150840Y-92261460D01*
X166152335Y-92247234D01*
X166155460Y-92217500D01*
X166151700Y-92181720D01*
X166150840Y-92173537D01*
X166150500Y-92167053D01*
X166150500Y-92122854D01*
X166141311Y-92079623D01*
X166140295Y-92073209D01*
X166138964Y-92060551D01*
X166135674Y-92029244D01*
X166122011Y-91987198D01*
X166120334Y-91980935D01*
X166118765Y-91973556D01*
X166111144Y-91937697D01*
X166093163Y-91897312D01*
X166090835Y-91891248D01*
X166077179Y-91849216D01*
X166070010Y-91836800D01*
X166055075Y-91810930D01*
X166052127Y-91805145D01*
X166046469Y-91792437D01*
X166037183Y-91723187D01*
X166066811Y-91659910D01*
X166125946Y-91622696D01*
X166159748Y-91618000D01*
X166880162Y-91618000D01*
X166947201Y-91637685D01*
X166965731Y-91652257D01*
X167007144Y-91691744D01*
X167179933Y-91802790D01*
X167200266Y-91810930D01*
X167370618Y-91879129D01*
X167521880Y-91908282D01*
X167572301Y-91918000D01*
X167572302Y-91918000D01*
X168376226Y-91918000D01*
X168376232Y-91918000D01*
X168529466Y-91903368D01*
X168726541Y-91845501D01*
X168909104Y-91751384D01*
X169070556Y-91624416D01*
X169205061Y-91469189D01*
X169307759Y-91291311D01*
X169374937Y-91097212D01*
X169404168Y-90893907D01*
X169394395Y-90688744D01*
X169345971Y-90489138D01*
X169260647Y-90302304D01*
X169260643Y-90302298D01*
X169141510Y-90134998D01*
X169141504Y-90134992D01*
X168992852Y-89993253D01*
X168820066Y-89882209D01*
X168629391Y-89805874D01*
X168629384Y-89805871D01*
X168629382Y-89805871D01*
X168629379Y-89805870D01*
X168629378Y-89805870D01*
X168427699Y-89767000D01*
X168427698Y-89767000D01*
X167623768Y-89767000D01*
X167470534Y-89781632D01*
X167470530Y-89781633D01*
X167273462Y-89839497D01*
X167090891Y-89933618D01*
X166929446Y-90060581D01*
X166929443Y-90060584D01*
X166794943Y-90215806D01*
X166794934Y-90215817D01*
X166743446Y-90305000D01*
X166692879Y-90353215D01*
X166636059Y-90367000D01*
X165603188Y-90367000D01*
X165536149Y-90347315D01*
X165506542Y-90318069D01*
X165505375Y-90319001D01*
X165364365Y-90142179D01*
X165198248Y-89997048D01*
X165198240Y-89997041D01*
X165008880Y-89883903D01*
X165008877Y-89883901D01*
X165008874Y-89883900D01*
X164861270Y-89828503D01*
X164802344Y-89806388D01*
X164585301Y-89767000D01*
X164585297Y-89767000D01*
X163869968Y-89767000D01*
X163839306Y-89769759D01*
X163705292Y-89781820D01*
X163492661Y-89840502D01*
X163492646Y-89840508D01*
X163293908Y-89936215D01*
X163293900Y-89936219D01*
X163115442Y-90065876D01*
X163115434Y-90065882D01*
X162962994Y-90225322D01*
X162841469Y-90409426D01*
X162754770Y-90612270D01*
X162754767Y-90612279D01*
X162705684Y-90827326D01*
X162705682Y-90827337D01*
X162695786Y-91047699D01*
X162695786Y-91047704D01*
X162725397Y-91266302D01*
X162725398Y-91266306D01*
X162793564Y-91476100D01*
X162898095Y-91670350D01*
X162898097Y-91670353D01*
X163035634Y-91842820D01*
X163201751Y-91987951D01*
X163201759Y-91987958D01*
X163391119Y-92101096D01*
X163391126Y-92101100D01*
X163494070Y-92139735D01*
X163549918Y-92181720D01*
X163574202Y-92247234D01*
X163574500Y-92255828D01*
X163574500Y-97173880D01*
X163554815Y-97240919D01*
X163502011Y-97286674D01*
X163494089Y-97289966D01*
X163492656Y-97290503D01*
X163293908Y-97386215D01*
X163293900Y-97386219D01*
X163115442Y-97515876D01*
X163115434Y-97515882D01*
X162962994Y-97675322D01*
X162841469Y-97859426D01*
X162826473Y-97894511D01*
X162759030Y-98052304D01*
X162754770Y-98062270D01*
X162754767Y-98062279D01*
X162705684Y-98277326D01*
X162705682Y-98277337D01*
X162698434Y-98438741D01*
X162695786Y-98497704D01*
X120450971Y-98497704D01*
X120450971Y-79850237D01*
X120451839Y-79847279D01*
X120451002Y-79800747D01*
X120451009Y-79800000D01*
X121644341Y-79800000D01*
X121664936Y-80035403D01*
X121664938Y-80035413D01*
X121726094Y-80263655D01*
X121726096Y-80263659D01*
X121726097Y-80263663D01*
X121776031Y-80370745D01*
X121825964Y-80477828D01*
X121825965Y-80477830D01*
X121961505Y-80671402D01*
X122128597Y-80838494D01*
X122322169Y-80974034D01*
X122322171Y-80974035D01*
X122536337Y-81073903D01*
X122764592Y-81135063D01*
X122941034Y-81150500D01*
X123058966Y-81150500D01*
X123235408Y-81135063D01*
X123463663Y-81073903D01*
X123677829Y-80974035D01*
X123871401Y-80838495D01*
X124038495Y-80671401D01*
X124174035Y-80477830D01*
X124273903Y-80263663D01*
X124335063Y-80035408D01*
X124355659Y-79800000D01*
X125944341Y-79800000D01*
X125964936Y-80035403D01*
X125964938Y-80035413D01*
X126026094Y-80263655D01*
X126026096Y-80263659D01*
X126026097Y-80263663D01*
X126106004Y-80435023D01*
X126125965Y-80477830D01*
X126125967Y-80477834D01*
X126234281Y-80632521D01*
X126261505Y-80671401D01*
X126428599Y-80838495D01*
X126525384Y-80906264D01*
X126622165Y-80974032D01*
X126622167Y-80974033D01*
X126622170Y-80974035D01*
X126836337Y-81073903D01*
X127064592Y-81135063D01*
X127241034Y-81150500D01*
X127299999Y-81155659D01*
X127300000Y-81155659D01*
X127300001Y-81155659D01*
X127358966Y-81150500D01*
X127535408Y-81135063D01*
X127763663Y-81073903D01*
X127977830Y-80974035D01*
X128171401Y-80838495D01*
X128338495Y-80671401D01*
X128468426Y-80485840D01*
X128523001Y-80442217D01*
X128592499Y-80435023D01*
X128654854Y-80466546D01*
X128671574Y-80485841D01*
X128801505Y-80671401D01*
X128968599Y-80838495D01*
X129065384Y-80906264D01*
X129162165Y-80974032D01*
X129162167Y-80974033D01*
X129162170Y-80974035D01*
X129376337Y-81073903D01*
X129604592Y-81135063D01*
X129781034Y-81150500D01*
X129839999Y-81155659D01*
X129840000Y-81155659D01*
X129840001Y-81155659D01*
X129898966Y-81150500D01*
X130075408Y-81135063D01*
X130303663Y-81073903D01*
X130517830Y-80974035D01*
X130711401Y-80838495D01*
X130878495Y-80671401D01*
X131008426Y-80485841D01*
X131063002Y-80442217D01*
X131132500Y-80435023D01*
X131194855Y-80466546D01*
X131211575Y-80485842D01*
X131341500Y-80671395D01*
X131341505Y-80671401D01*
X131508599Y-80838495D01*
X131605384Y-80906264D01*
X131702165Y-80974032D01*
X131702167Y-80974033D01*
X131702170Y-80974035D01*
X131916337Y-81073903D01*
X132144592Y-81135063D01*
X132321034Y-81150500D01*
X132379999Y-81155659D01*
X132380000Y-81155659D01*
X132380001Y-81155659D01*
X132438966Y-81150500D01*
X132615408Y-81135063D01*
X132843663Y-81073903D01*
X133057830Y-80974035D01*
X133251401Y-80838495D01*
X133418495Y-80671401D01*
X133548426Y-80485840D01*
X133603001Y-80442217D01*
X133672499Y-80435023D01*
X133734854Y-80466546D01*
X133751574Y-80485841D01*
X133881505Y-80671401D01*
X134048599Y-80838495D01*
X134145384Y-80906264D01*
X134242165Y-80974032D01*
X134242167Y-80974033D01*
X134242170Y-80974035D01*
X134456337Y-81073903D01*
X134684592Y-81135063D01*
X134861034Y-81150500D01*
X134919999Y-81155659D01*
X134920000Y-81155659D01*
X134920001Y-81155659D01*
X134978966Y-81150500D01*
X135155408Y-81135063D01*
X135383663Y-81073903D01*
X135597830Y-80974035D01*
X135791401Y-80838495D01*
X135958495Y-80671401D01*
X136088426Y-80485841D01*
X136143002Y-80442217D01*
X136212500Y-80435023D01*
X136274855Y-80466546D01*
X136291575Y-80485842D01*
X136421500Y-80671395D01*
X136421505Y-80671401D01*
X136588599Y-80838495D01*
X136685384Y-80906264D01*
X136782165Y-80974032D01*
X136782167Y-80974033D01*
X136782170Y-80974035D01*
X136996337Y-81073903D01*
X137224592Y-81135063D01*
X137401034Y-81150500D01*
X137459999Y-81155659D01*
X137460000Y-81155659D01*
X137460001Y-81155659D01*
X137518966Y-81150500D01*
X137695408Y-81135063D01*
X137923663Y-81073903D01*
X138137830Y-80974035D01*
X138331401Y-80838495D01*
X138498495Y-80671401D01*
X138628426Y-80485841D01*
X138683002Y-80442217D01*
X138752500Y-80435023D01*
X138814855Y-80466546D01*
X138831575Y-80485842D01*
X138961500Y-80671395D01*
X138961505Y-80671401D01*
X139128599Y-80838495D01*
X139225384Y-80906264D01*
X139322165Y-80974032D01*
X139322167Y-80974033D01*
X139322170Y-80974035D01*
X139536337Y-81073903D01*
X139764592Y-81135063D01*
X139941034Y-81150500D01*
X139999999Y-81155659D01*
X140000000Y-81155659D01*
X140000001Y-81155659D01*
X140058966Y-81150500D01*
X140235408Y-81135063D01*
X140463663Y-81073903D01*
X140677830Y-80974035D01*
X140871401Y-80838495D01*
X141038495Y-80671401D01*
X141168426Y-80485841D01*
X141223002Y-80442217D01*
X141292500Y-80435023D01*
X141354855Y-80466546D01*
X141371575Y-80485842D01*
X141501500Y-80671395D01*
X141501505Y-80671401D01*
X141668599Y-80838495D01*
X141765384Y-80906264D01*
X141862165Y-80974032D01*
X141862167Y-80974033D01*
X141862170Y-80974035D01*
X142076337Y-81073903D01*
X142304592Y-81135063D01*
X142481034Y-81150500D01*
X142539999Y-81155659D01*
X142540000Y-81155659D01*
X142540001Y-81155659D01*
X142598966Y-81150500D01*
X142775408Y-81135063D01*
X143003663Y-81073903D01*
X143217830Y-80974035D01*
X143411401Y-80838495D01*
X143578495Y-80671401D01*
X143708426Y-80485841D01*
X143763002Y-80442217D01*
X143832500Y-80435023D01*
X143894855Y-80466546D01*
X143911575Y-80485842D01*
X144041500Y-80671395D01*
X144041505Y-80671401D01*
X144208599Y-80838495D01*
X144305384Y-80906264D01*
X144402165Y-80974032D01*
X144402167Y-80974033D01*
X144402170Y-80974035D01*
X144616337Y-81073903D01*
X144844592Y-81135063D01*
X145021034Y-81150500D01*
X145079999Y-81155659D01*
X145080000Y-81155659D01*
X145080001Y-81155659D01*
X145138966Y-81150500D01*
X145315408Y-81135063D01*
X145543663Y-81073903D01*
X145757830Y-80974035D01*
X145951401Y-80838495D01*
X146118495Y-80671401D01*
X146248426Y-80485841D01*
X146303002Y-80442217D01*
X146372500Y-80435023D01*
X146434855Y-80466546D01*
X146451575Y-80485842D01*
X146581500Y-80671395D01*
X146581505Y-80671401D01*
X146748599Y-80838495D01*
X146845384Y-80906264D01*
X146942165Y-80974032D01*
X146942167Y-80974033D01*
X146942170Y-80974035D01*
X147156337Y-81073903D01*
X147384592Y-81135063D01*
X147561034Y-81150500D01*
X147619999Y-81155659D01*
X147620000Y-81155659D01*
X147620001Y-81155659D01*
X147678966Y-81150500D01*
X147855408Y-81135063D01*
X148083663Y-81073903D01*
X148297830Y-80974035D01*
X148491401Y-80838495D01*
X148658495Y-80671401D01*
X148788426Y-80485841D01*
X148843002Y-80442217D01*
X148912500Y-80435023D01*
X148974855Y-80466546D01*
X148991575Y-80485842D01*
X149121500Y-80671395D01*
X149121505Y-80671401D01*
X149288599Y-80838495D01*
X149385384Y-80906265D01*
X149482165Y-80974032D01*
X149482167Y-80974033D01*
X149482170Y-80974035D01*
X149696337Y-81073903D01*
X149924592Y-81135063D01*
X150101034Y-81150500D01*
X150159999Y-81155659D01*
X150160000Y-81155659D01*
X150160001Y-81155659D01*
X150218966Y-81150500D01*
X150395408Y-81135063D01*
X150623663Y-81073903D01*
X150837830Y-80974035D01*
X151031401Y-80838495D01*
X151198495Y-80671401D01*
X151328426Y-80485841D01*
X151383002Y-80442217D01*
X151452500Y-80435023D01*
X151514855Y-80466546D01*
X151531575Y-80485842D01*
X151661500Y-80671395D01*
X151661505Y-80671401D01*
X151828599Y-80838495D01*
X151925384Y-80906265D01*
X152022165Y-80974032D01*
X152022167Y-80974033D01*
X152022170Y-80974035D01*
X152236337Y-81073903D01*
X152464592Y-81135063D01*
X152641034Y-81150500D01*
X152699999Y-81155659D01*
X152700000Y-81155659D01*
X152700001Y-81155659D01*
X152758966Y-81150500D01*
X152935408Y-81135063D01*
X153163663Y-81073903D01*
X153377830Y-80974035D01*
X153571401Y-80838495D01*
X153738495Y-80671401D01*
X153868426Y-80485841D01*
X153923002Y-80442217D01*
X153992500Y-80435023D01*
X154054855Y-80466546D01*
X154071575Y-80485842D01*
X154201500Y-80671395D01*
X154201505Y-80671401D01*
X154368599Y-80838495D01*
X154465384Y-80906265D01*
X154562165Y-80974032D01*
X154562167Y-80974033D01*
X154562170Y-80974035D01*
X154776337Y-81073903D01*
X155004592Y-81135063D01*
X155181034Y-81150500D01*
X155239999Y-81155659D01*
X155240000Y-81155659D01*
X155240001Y-81155659D01*
X155298966Y-81150500D01*
X155475408Y-81135063D01*
X155703663Y-81073903D01*
X155917830Y-80974035D01*
X156111401Y-80838495D01*
X156278495Y-80671401D01*
X156408426Y-80485841D01*
X156463002Y-80442217D01*
X156532500Y-80435023D01*
X156594855Y-80466546D01*
X156611575Y-80485842D01*
X156741500Y-80671395D01*
X156741505Y-80671401D01*
X156908599Y-80838495D01*
X157005384Y-80906265D01*
X157102165Y-80974032D01*
X157102167Y-80974033D01*
X157102170Y-80974035D01*
X157316337Y-81073903D01*
X157544592Y-81135063D01*
X157721034Y-81150500D01*
X157779999Y-81155659D01*
X157780000Y-81155659D01*
X157780001Y-81155659D01*
X157838966Y-81150500D01*
X158015408Y-81135063D01*
X158243663Y-81073903D01*
X158457830Y-80974035D01*
X158651401Y-80838495D01*
X158818495Y-80671401D01*
X158948730Y-80485405D01*
X159003307Y-80441781D01*
X159072805Y-80434587D01*
X159135160Y-80466110D01*
X159151879Y-80485405D01*
X159281890Y-80671078D01*
X159448917Y-80838105D01*
X159642421Y-80973600D01*
X159856507Y-81073429D01*
X159856516Y-81073433D01*
X160070000Y-81130634D01*
X160070000Y-80235501D01*
X160177685Y-80284680D01*
X160284237Y-80300000D01*
X160355763Y-80300000D01*
X160462315Y-80284680D01*
X160570000Y-80235501D01*
X160570000Y-81130633D01*
X160783483Y-81073433D01*
X160783492Y-81073429D01*
X160997578Y-80973600D01*
X161191078Y-80838108D01*
X161313133Y-80716053D01*
X161374456Y-80682568D01*
X161444148Y-80687552D01*
X161500082Y-80729423D01*
X161516997Y-80760401D01*
X161566202Y-80892328D01*
X161566206Y-80892335D01*
X161652452Y-81007544D01*
X161652455Y-81007547D01*
X161767664Y-81093793D01*
X161767671Y-81093797D01*
X161902517Y-81144091D01*
X161902516Y-81144091D01*
X161909444Y-81144835D01*
X161962127Y-81150500D01*
X163757872Y-81150499D01*
X163817483Y-81144091D01*
X163952331Y-81093796D01*
X164067546Y-81007546D01*
X164153796Y-80892331D01*
X164204091Y-80757483D01*
X164210500Y-80697873D01*
X164210499Y-79800000D01*
X165844341Y-79800000D01*
X165864936Y-80035403D01*
X165864938Y-80035413D01*
X165926094Y-80263655D01*
X165926096Y-80263659D01*
X165926097Y-80263663D01*
X165976030Y-80370746D01*
X166025964Y-80477828D01*
X166025965Y-80477830D01*
X166161505Y-80671402D01*
X166328597Y-80838494D01*
X166522169Y-80974034D01*
X166522171Y-80974035D01*
X166736337Y-81073903D01*
X166964592Y-81135063D01*
X167141034Y-81150500D01*
X167258966Y-81150500D01*
X167435408Y-81135063D01*
X167663663Y-81073903D01*
X167877829Y-80974035D01*
X168071401Y-80838495D01*
X168238495Y-80671401D01*
X168374035Y-80477830D01*
X168473903Y-80263663D01*
X168535063Y-80035408D01*
X168555659Y-79800000D01*
X168555501Y-79798199D01*
X168542815Y-79653196D01*
X168535063Y-79564592D01*
X168473903Y-79336337D01*
X168374035Y-79122171D01*
X168374034Y-79122169D01*
X168238494Y-78928597D01*
X168071402Y-78761505D01*
X167877830Y-78625965D01*
X167877828Y-78625964D01*
X167770746Y-78576031D01*
X167663663Y-78526097D01*
X167663659Y-78526096D01*
X167663655Y-78526094D01*
X167435413Y-78464938D01*
X167435403Y-78464936D01*
X167258966Y-78449500D01*
X167141034Y-78449500D01*
X166964596Y-78464936D01*
X166964586Y-78464938D01*
X166736344Y-78526094D01*
X166736335Y-78526098D01*
X166522171Y-78625964D01*
X166522169Y-78625965D01*
X166328597Y-78761505D01*
X166161506Y-78928597D01*
X166161501Y-78928604D01*
X166025967Y-79122165D01*
X166025965Y-79122169D01*
X165926098Y-79336335D01*
X165926094Y-79336344D01*
X165864938Y-79564586D01*
X165864936Y-79564596D01*
X165844341Y-79799999D01*
X165844341Y-79800000D01*
X164210499Y-79800000D01*
X164210499Y-78902128D01*
X164204091Y-78842517D01*
X164203002Y-78839598D01*
X164153797Y-78707671D01*
X164153793Y-78707664D01*
X164067547Y-78592455D01*
X164067544Y-78592452D01*
X163952335Y-78506206D01*
X163952328Y-78506202D01*
X163817482Y-78455908D01*
X163817483Y-78455908D01*
X163757883Y-78449501D01*
X163757881Y-78449500D01*
X163757873Y-78449500D01*
X163757864Y-78449500D01*
X161962129Y-78449500D01*
X161962123Y-78449501D01*
X161902516Y-78455908D01*
X161767671Y-78506202D01*
X161767664Y-78506206D01*
X161652455Y-78592452D01*
X161652452Y-78592455D01*
X161566206Y-78707664D01*
X161566202Y-78707671D01*
X161516997Y-78839598D01*
X161475126Y-78895532D01*
X161409661Y-78919949D01*
X161341388Y-78905097D01*
X161313134Y-78883946D01*
X161191082Y-78761894D01*
X160997578Y-78626399D01*
X160783492Y-78526570D01*
X160783486Y-78526567D01*
X160570000Y-78469364D01*
X160570000Y-79364498D01*
X160462315Y-79315320D01*
X160355763Y-79300000D01*
X160284237Y-79300000D01*
X160177685Y-79315320D01*
X160070000Y-79364498D01*
X160070000Y-78469364D01*
X160069999Y-78469364D01*
X159856513Y-78526567D01*
X159856507Y-78526570D01*
X159642422Y-78626399D01*
X159642420Y-78626400D01*
X159448926Y-78761886D01*
X159448920Y-78761891D01*
X159281891Y-78928920D01*
X159281890Y-78928922D01*
X159151880Y-79114595D01*
X159097303Y-79158219D01*
X159027804Y-79165412D01*
X158965450Y-79133890D01*
X158948730Y-79114594D01*
X158818494Y-78928597D01*
X158651402Y-78761506D01*
X158651395Y-78761501D01*
X158457834Y-78625967D01*
X158457830Y-78625965D01*
X158453858Y-78624113D01*
X158243663Y-78526097D01*
X158243659Y-78526096D01*
X158243655Y-78526094D01*
X158015413Y-78464938D01*
X158015403Y-78464936D01*
X157780001Y-78444341D01*
X157779999Y-78444341D01*
X157544596Y-78464936D01*
X157544586Y-78464938D01*
X157316344Y-78526094D01*
X157316335Y-78526098D01*
X157102171Y-78625964D01*
X157102169Y-78625965D01*
X156908597Y-78761505D01*
X156741505Y-78928597D01*
X156611575Y-79114158D01*
X156556998Y-79157783D01*
X156487500Y-79164977D01*
X156425145Y-79133454D01*
X156408425Y-79114158D01*
X156278494Y-78928597D01*
X156111402Y-78761506D01*
X156111395Y-78761501D01*
X155917834Y-78625967D01*
X155917830Y-78625965D01*
X155913858Y-78624113D01*
X155703663Y-78526097D01*
X155703659Y-78526096D01*
X155703655Y-78526094D01*
X155475413Y-78464938D01*
X155475403Y-78464936D01*
X155240001Y-78444341D01*
X155239999Y-78444341D01*
X155004596Y-78464936D01*
X155004586Y-78464938D01*
X154776344Y-78526094D01*
X154776335Y-78526098D01*
X154562171Y-78625964D01*
X154562169Y-78625965D01*
X154368597Y-78761505D01*
X154201505Y-78928597D01*
X154071575Y-79114158D01*
X154016998Y-79157783D01*
X153947500Y-79164977D01*
X153885145Y-79133454D01*
X153868425Y-79114158D01*
X153738494Y-78928597D01*
X153571402Y-78761506D01*
X153571395Y-78761501D01*
X153377834Y-78625967D01*
X153377830Y-78625965D01*
X153373858Y-78624113D01*
X153163663Y-78526097D01*
X153163659Y-78526096D01*
X153163655Y-78526094D01*
X152935413Y-78464938D01*
X152935403Y-78464936D01*
X152700001Y-78444341D01*
X152699999Y-78444341D01*
X152464596Y-78464936D01*
X152464586Y-78464938D01*
X152236344Y-78526094D01*
X152236335Y-78526098D01*
X152022171Y-78625964D01*
X152022169Y-78625965D01*
X151828597Y-78761505D01*
X151661505Y-78928597D01*
X151531575Y-79114158D01*
X151476998Y-79157783D01*
X151407500Y-79164977D01*
X151345145Y-79133454D01*
X151328425Y-79114158D01*
X151198494Y-78928597D01*
X151031402Y-78761506D01*
X151031395Y-78761501D01*
X150837834Y-78625967D01*
X150837830Y-78625965D01*
X150833858Y-78624113D01*
X150623663Y-78526097D01*
X150623659Y-78526096D01*
X150623655Y-78526094D01*
X150395413Y-78464938D01*
X150395403Y-78464936D01*
X150160001Y-78444341D01*
X150159999Y-78444341D01*
X149924596Y-78464936D01*
X149924586Y-78464938D01*
X149696344Y-78526094D01*
X149696335Y-78526098D01*
X149482171Y-78625964D01*
X149482169Y-78625965D01*
X149288597Y-78761505D01*
X149121505Y-78928597D01*
X148991575Y-79114158D01*
X148936998Y-79157783D01*
X148867500Y-79164977D01*
X148805145Y-79133454D01*
X148788425Y-79114158D01*
X148658494Y-78928597D01*
X148491402Y-78761506D01*
X148491395Y-78761501D01*
X148297834Y-78625967D01*
X148297830Y-78625965D01*
X148293858Y-78624113D01*
X148083663Y-78526097D01*
X148083659Y-78526096D01*
X148083655Y-78526094D01*
X147855413Y-78464938D01*
X147855403Y-78464936D01*
X147620001Y-78444341D01*
X147619999Y-78444341D01*
X147384596Y-78464936D01*
X147384586Y-78464938D01*
X147156344Y-78526094D01*
X147156335Y-78526098D01*
X146942171Y-78625964D01*
X146942169Y-78625965D01*
X146748597Y-78761505D01*
X146581505Y-78928597D01*
X146451575Y-79114158D01*
X146396998Y-79157783D01*
X146327500Y-79164977D01*
X146265145Y-79133454D01*
X146248425Y-79114158D01*
X146118494Y-78928597D01*
X145951402Y-78761506D01*
X145951395Y-78761501D01*
X145757834Y-78625967D01*
X145757830Y-78625965D01*
X145753858Y-78624113D01*
X145543663Y-78526097D01*
X145543659Y-78526096D01*
X145543655Y-78526094D01*
X145315413Y-78464938D01*
X145315403Y-78464936D01*
X145080001Y-78444341D01*
X145079999Y-78444341D01*
X144844596Y-78464936D01*
X144844586Y-78464938D01*
X144616344Y-78526094D01*
X144616335Y-78526098D01*
X144402171Y-78625964D01*
X144402169Y-78625965D01*
X144208597Y-78761505D01*
X144041505Y-78928597D01*
X143911575Y-79114158D01*
X143856998Y-79157783D01*
X143787500Y-79164977D01*
X143725145Y-79133454D01*
X143708425Y-79114158D01*
X143578494Y-78928597D01*
X143411402Y-78761506D01*
X143411395Y-78761501D01*
X143217834Y-78625967D01*
X143217830Y-78625965D01*
X143213858Y-78624113D01*
X143003663Y-78526097D01*
X143003659Y-78526096D01*
X143003655Y-78526094D01*
X142775413Y-78464938D01*
X142775403Y-78464936D01*
X142540001Y-78444341D01*
X142539999Y-78444341D01*
X142304596Y-78464936D01*
X142304586Y-78464938D01*
X142076344Y-78526094D01*
X142076335Y-78526098D01*
X141862171Y-78625964D01*
X141862169Y-78625965D01*
X141668597Y-78761505D01*
X141501505Y-78928597D01*
X141371575Y-79114158D01*
X141316998Y-79157783D01*
X141247500Y-79164977D01*
X141185145Y-79133454D01*
X141168425Y-79114158D01*
X141038494Y-78928597D01*
X140871402Y-78761506D01*
X140871395Y-78761501D01*
X140677834Y-78625967D01*
X140677830Y-78625965D01*
X140673858Y-78624113D01*
X140463663Y-78526097D01*
X140463659Y-78526096D01*
X140463655Y-78526094D01*
X140235413Y-78464938D01*
X140235403Y-78464936D01*
X140000001Y-78444341D01*
X139999999Y-78444341D01*
X139764596Y-78464936D01*
X139764586Y-78464938D01*
X139536344Y-78526094D01*
X139536335Y-78526098D01*
X139322171Y-78625964D01*
X139322169Y-78625965D01*
X139128597Y-78761505D01*
X138961505Y-78928597D01*
X138831575Y-79114158D01*
X138776998Y-79157783D01*
X138707500Y-79164977D01*
X138645145Y-79133454D01*
X138628425Y-79114158D01*
X138498494Y-78928597D01*
X138331402Y-78761506D01*
X138331395Y-78761501D01*
X138137834Y-78625967D01*
X138137830Y-78625965D01*
X138133858Y-78624113D01*
X137923663Y-78526097D01*
X137923659Y-78526096D01*
X137923655Y-78526094D01*
X137695413Y-78464938D01*
X137695403Y-78464936D01*
X137460001Y-78444341D01*
X137459999Y-78444341D01*
X137224596Y-78464936D01*
X137224586Y-78464938D01*
X136996344Y-78526094D01*
X136996335Y-78526098D01*
X136782171Y-78625964D01*
X136782169Y-78625965D01*
X136588597Y-78761505D01*
X136421505Y-78928597D01*
X136291575Y-79114158D01*
X136236998Y-79157783D01*
X136167500Y-79164977D01*
X136105145Y-79133454D01*
X136088425Y-79114158D01*
X135958494Y-78928597D01*
X135791402Y-78761506D01*
X135791395Y-78761501D01*
X135597834Y-78625967D01*
X135597830Y-78625965D01*
X135593858Y-78624113D01*
X135383663Y-78526097D01*
X135383659Y-78526096D01*
X135383655Y-78526094D01*
X135155413Y-78464938D01*
X135155403Y-78464936D01*
X134920001Y-78444341D01*
X134919999Y-78444341D01*
X134684596Y-78464936D01*
X134684586Y-78464938D01*
X134456344Y-78526094D01*
X134456335Y-78526098D01*
X134242171Y-78625964D01*
X134242169Y-78625965D01*
X134048597Y-78761505D01*
X133881505Y-78928597D01*
X133751575Y-79114158D01*
X133696998Y-79157783D01*
X133627500Y-79164977D01*
X133565145Y-79133454D01*
X133548425Y-79114158D01*
X133418494Y-78928597D01*
X133251402Y-78761506D01*
X133251395Y-78761501D01*
X133057834Y-78625967D01*
X133057830Y-78625965D01*
X133053858Y-78624113D01*
X132843663Y-78526097D01*
X132843659Y-78526096D01*
X132843655Y-78526094D01*
X132615413Y-78464938D01*
X132615403Y-78464936D01*
X132380001Y-78444341D01*
X132379999Y-78444341D01*
X132144596Y-78464936D01*
X132144586Y-78464938D01*
X131916344Y-78526094D01*
X131916335Y-78526098D01*
X131702171Y-78625964D01*
X131702169Y-78625965D01*
X131508597Y-78761505D01*
X131341505Y-78928597D01*
X131211575Y-79114158D01*
X131156998Y-79157783D01*
X131087500Y-79164977D01*
X131025145Y-79133454D01*
X131008425Y-79114158D01*
X130878494Y-78928597D01*
X130711402Y-78761506D01*
X130711395Y-78761501D01*
X130517834Y-78625967D01*
X130517830Y-78625965D01*
X130513858Y-78624113D01*
X130303663Y-78526097D01*
X130303659Y-78526096D01*
X130303655Y-78526094D01*
X130075413Y-78464938D01*
X130075403Y-78464936D01*
X129840001Y-78444341D01*
X129839999Y-78444341D01*
X129604596Y-78464936D01*
X129604586Y-78464938D01*
X129376344Y-78526094D01*
X129376335Y-78526098D01*
X129162171Y-78625964D01*
X129162169Y-78625965D01*
X128968597Y-78761505D01*
X128801505Y-78928597D01*
X128671575Y-79114158D01*
X128616998Y-79157783D01*
X128547500Y-79164977D01*
X128485145Y-79133454D01*
X128468425Y-79114158D01*
X128338494Y-78928597D01*
X128171402Y-78761506D01*
X128171395Y-78761501D01*
X127977834Y-78625967D01*
X127977830Y-78625965D01*
X127973858Y-78624113D01*
X127763663Y-78526097D01*
X127763659Y-78526096D01*
X127763655Y-78526094D01*
X127535413Y-78464938D01*
X127535403Y-78464936D01*
X127300001Y-78444341D01*
X127299999Y-78444341D01*
X127064596Y-78464936D01*
X127064586Y-78464938D01*
X126836344Y-78526094D01*
X126836335Y-78526098D01*
X126622171Y-78625964D01*
X126622169Y-78625965D01*
X126428597Y-78761505D01*
X126261505Y-78928597D01*
X126125965Y-79122169D01*
X126125964Y-79122171D01*
X126026098Y-79336335D01*
X126026094Y-79336344D01*
X125964938Y-79564586D01*
X125964936Y-79564596D01*
X125944341Y-79799999D01*
X125944341Y-79800000D01*
X124355659Y-79800000D01*
X124355501Y-79798199D01*
X124342815Y-79653196D01*
X124335063Y-79564592D01*
X124273903Y-79336337D01*
X124174035Y-79122171D01*
X124174034Y-79122169D01*
X124038494Y-78928597D01*
X123871402Y-78761505D01*
X123677830Y-78625965D01*
X123677828Y-78625964D01*
X123570745Y-78576031D01*
X123463663Y-78526097D01*
X123463659Y-78526096D01*
X123463655Y-78526094D01*
X123235413Y-78464938D01*
X123235403Y-78464936D01*
X123058966Y-78449500D01*
X122941034Y-78449500D01*
X122764596Y-78464936D01*
X122764586Y-78464938D01*
X122536344Y-78526094D01*
X122536335Y-78526098D01*
X122322171Y-78625964D01*
X122322169Y-78625965D01*
X122128597Y-78761505D01*
X121961506Y-78928597D01*
X121961501Y-78928604D01*
X121825967Y-79122165D01*
X121825965Y-79122169D01*
X121726098Y-79336335D01*
X121726094Y-79336344D01*
X121664938Y-79564586D01*
X121664936Y-79564596D01*
X121644341Y-79799999D01*
X121644341Y-79800000D01*
X120451009Y-79800000D01*
X120451036Y-79797303D01*
X120453635Y-79728111D01*
X120455265Y-79684734D01*
X120462753Y-79506255D01*
X120463405Y-79499532D01*
X120463856Y-79496576D01*
X120484326Y-79362157D01*
X120484929Y-79358525D01*
X120509691Y-79209106D01*
X120511003Y-79203086D01*
X120548660Y-79064164D01*
X120591250Y-78919620D01*
X120593089Y-78914293D01*
X120647040Y-78778538D01*
X120706315Y-78641734D01*
X120708516Y-78637178D01*
X120778078Y-78507343D01*
X120853278Y-78379339D01*
X120855697Y-78375549D01*
X120939164Y-78254955D01*
X120940828Y-78252670D01*
X121030107Y-78136073D01*
X121032640Y-78132980D01*
X121129337Y-78022507D01*
X121131665Y-78019995D01*
X121234393Y-77915272D01*
X121236868Y-77912889D01*
X121345452Y-77814094D01*
X121348494Y-77811503D01*
X121463303Y-77720039D01*
X121465651Y-77718259D01*
X121584546Y-77632540D01*
X121588333Y-77630018D01*
X121714821Y-77552399D01*
X121843310Y-77480345D01*
X121847833Y-77478049D01*
X121983460Y-77416161D01*
X122118162Y-77359605D01*
X122123464Y-77357660D01*
X122267167Y-77312297D01*
X122405324Y-77271980D01*
X122411337Y-77270549D01*
X122563795Y-77242259D01*
X122700831Y-77218685D01*
X122707506Y-77217909D01*
X122885935Y-77206984D01*
X122998242Y-77200599D01*
X123001758Y-77200500D01*
X167148862Y-77200500D01*
X167152124Y-77201457D01*
G37*
%TD.AperFunction*%
%TD*%
M02*
