%TF.GenerationSoftware,KiCad,Pcbnew,7.0.6-1.fc38*%
%TF.CreationDate,2023-08-06T10:31:57+03:00*%
%TF.ProjectId,stm32-breakout,73746d33-322d-4627-9265-616b6f75742e,v.1.0*%
%TF.SameCoordinates,Original*%
%TF.FileFunction,Soldermask,Top*%
%TF.FilePolarity,Negative*%
%FSLAX46Y46*%
G04 Gerber Fmt 4.6, Leading zero omitted, Abs format (unit mm)*
G04 Created by KiCad (PCBNEW 7.0.6-1.fc38) date 2023-08-06 10:31:57*
%MOMM*%
%LPD*%
G01*
G04 APERTURE LIST*
G04 Aperture macros list*
%AMRoundRect*
0 Rectangle with rounded corners*
0 $1 Rounding radius*
0 $2 $3 $4 $5 $6 $7 $8 $9 X,Y pos of 4 corners*
0 Add a 4 corners polygon primitive as box body*
4,1,4,$2,$3,$4,$5,$6,$7,$8,$9,$2,$3,0*
0 Add four circle primitives for the rounded corners*
1,1,$1+$1,$2,$3*
1,1,$1+$1,$4,$5*
1,1,$1+$1,$6,$7*
1,1,$1+$1,$8,$9*
0 Add four rect primitives between the rounded corners*
20,1,$1+$1,$2,$3,$4,$5,0*
20,1,$1+$1,$4,$5,$6,$7,0*
20,1,$1+$1,$6,$7,$8,$9,0*
20,1,$1+$1,$8,$9,$2,$3,0*%
G04 Aperture macros list end*
%ADD10RoundRect,0.218750X-0.256250X0.218750X-0.256250X-0.218750X0.256250X-0.218750X0.256250X0.218750X0*%
%ADD11RoundRect,0.135000X-0.135000X-0.185000X0.135000X-0.185000X0.135000X0.185000X-0.135000X0.185000X0*%
%ADD12RoundRect,0.218750X-0.381250X0.218750X-0.381250X-0.218750X0.381250X-0.218750X0.381250X0.218750X0*%
%ADD13RoundRect,0.140000X0.170000X-0.140000X0.170000X0.140000X-0.170000X0.140000X-0.170000X-0.140000X0*%
%ADD14RoundRect,0.200000X-0.275000X0.200000X-0.275000X-0.200000X0.275000X-0.200000X0.275000X0.200000X0*%
%ADD15RoundRect,0.075000X-0.662500X-0.075000X0.662500X-0.075000X0.662500X0.075000X-0.662500X0.075000X0*%
%ADD16RoundRect,0.075000X-0.075000X-0.662500X0.075000X-0.662500X0.075000X0.662500X-0.075000X0.662500X0*%
%ADD17RoundRect,0.135000X-0.185000X0.135000X-0.185000X-0.135000X0.185000X-0.135000X0.185000X0.135000X0*%
%ADD18RoundRect,0.140000X-0.140000X-0.170000X0.140000X-0.170000X0.140000X0.170000X-0.140000X0.170000X0*%
%ADD19C,2.200000*%
%ADD20RoundRect,0.218750X-0.218750X-0.256250X0.218750X-0.256250X0.218750X0.256250X-0.218750X0.256250X0*%
%ADD21RoundRect,0.140000X0.140000X0.170000X-0.140000X0.170000X-0.140000X-0.170000X0.140000X-0.170000X0*%
%ADD22RoundRect,0.225000X0.250000X-0.225000X0.250000X0.225000X-0.250000X0.225000X-0.250000X-0.225000X0*%
%ADD23O,0.800000X0.800000*%
%ADD24R,1.300000X0.450000*%
%ADD25O,1.800000X1.150000*%
%ADD26O,2.000000X1.450000*%
%ADD27RoundRect,0.147500X0.172500X-0.147500X0.172500X0.147500X-0.172500X0.147500X-0.172500X-0.147500X0*%
%ADD28RoundRect,0.200000X0.200000X0.275000X-0.200000X0.275000X-0.200000X-0.275000X0.200000X-0.275000X0*%
%ADD29RoundRect,0.225000X-0.250000X0.225000X-0.250000X-0.225000X0.250000X-0.225000X0.250000X0.225000X0*%
%ADD30RoundRect,0.150000X0.150000X-0.512500X0.150000X0.512500X-0.150000X0.512500X-0.150000X-0.512500X0*%
%ADD31RoundRect,0.140000X-0.170000X0.140000X-0.170000X-0.140000X0.170000X-0.140000X0.170000X0.140000X0*%
%ADD32R,1.500000X1.000000*%
%ADD33R,2.400000X2.000000*%
%ADD34RoundRect,0.225000X0.225000X0.250000X-0.225000X0.250000X-0.225000X-0.250000X0.225000X-0.250000X0*%
%ADD35R,1.700000X1.700000*%
%ADD36O,1.700000X1.700000*%
G04 APERTURE END LIST*
D10*
%TO.C,D1*%
X164255000Y-103587500D03*
X164255000Y-105162500D03*
%TD*%
D11*
%TO.C,R2*%
X140650000Y-89000000D03*
X141670000Y-89000000D03*
%TD*%
D12*
%TO.C,FB1*%
X161605000Y-97050000D03*
X161605000Y-99175000D03*
%TD*%
D13*
%TO.C,C8*%
X134600000Y-97680000D03*
X134600000Y-96720000D03*
%TD*%
D14*
%TO.C,R1*%
X166055000Y-103550000D03*
X166055000Y-105200000D03*
%TD*%
D15*
%TO.C,U2*%
X137437500Y-93450000D03*
X137437500Y-93950000D03*
X137437500Y-94450000D03*
X137437500Y-94950000D03*
X137437500Y-95450000D03*
X137437500Y-95950000D03*
X137437500Y-96450000D03*
X137437500Y-96950000D03*
X137437500Y-97450000D03*
X137437500Y-97950000D03*
X137437500Y-98450000D03*
X137437500Y-98950000D03*
D16*
X138850000Y-100362500D03*
X139350000Y-100362500D03*
X139850000Y-100362500D03*
X140350000Y-100362500D03*
X140850000Y-100362500D03*
X141350000Y-100362500D03*
X141850000Y-100362500D03*
X142350000Y-100362500D03*
X142850000Y-100362500D03*
X143350000Y-100362500D03*
X143850000Y-100362500D03*
X144350000Y-100362500D03*
D15*
X145762500Y-98950000D03*
X145762500Y-98450000D03*
X145762500Y-97950000D03*
X145762500Y-97450000D03*
X145762500Y-96950000D03*
X145762500Y-96450000D03*
X145762500Y-95950000D03*
X145762500Y-95450000D03*
X145762500Y-94950000D03*
X145762500Y-94450000D03*
X145762500Y-93950000D03*
X145762500Y-93450000D03*
D16*
X144350000Y-92037500D03*
X143850000Y-92037500D03*
X143350000Y-92037500D03*
X142850000Y-92037500D03*
X142350000Y-92037500D03*
X141850000Y-92037500D03*
X141350000Y-92037500D03*
X140850000Y-92037500D03*
X140350000Y-92037500D03*
X139850000Y-92037500D03*
X139350000Y-92037500D03*
X138850000Y-92037500D03*
%TD*%
D17*
%TO.C,R4*%
X159605000Y-93780000D03*
X159605000Y-94800000D03*
%TD*%
D18*
%TO.C,C10*%
X131170000Y-92400000D03*
X132130000Y-92400000D03*
%TD*%
D19*
%TO.C,H1*%
X167200000Y-79800000D03*
%TD*%
%TO.C,H2*%
X167200000Y-112000000D03*
%TD*%
D20*
%TO.C,D2*%
X133812500Y-103400000D03*
X135387500Y-103400000D03*
%TD*%
D18*
%TO.C,C7*%
X138270000Y-90400000D03*
X139230000Y-90400000D03*
%TD*%
D13*
%TO.C,C9*%
X135800000Y-97680000D03*
X135800000Y-96720000D03*
%TD*%
D21*
%TO.C,C5*%
X144960000Y-102000000D03*
X144000000Y-102000000D03*
%TD*%
D22*
%TO.C,C3*%
X137000000Y-90975000D03*
X137000000Y-89425000D03*
%TD*%
D23*
%TO.C,J1*%
X165250000Y-97217500D03*
X165250000Y-92217500D03*
D24*
X164150000Y-96017500D03*
X164150000Y-95367500D03*
X164150000Y-94717500D03*
X164150000Y-94067500D03*
X164150000Y-93417500D03*
D25*
X168000000Y-98592500D03*
D26*
X164200000Y-98442500D03*
X164200000Y-90992500D03*
D25*
X168000000Y-90842500D03*
%TD*%
D21*
%TO.C,C4*%
X137280000Y-92400000D03*
X136320000Y-92400000D03*
%TD*%
D27*
%TO.C,L1*%
X134600000Y-99685000D03*
X134600000Y-98715000D03*
%TD*%
D19*
%TO.C,H3*%
X123000000Y-79800000D03*
%TD*%
D28*
%TO.C,R3*%
X132300000Y-103400000D03*
X130650000Y-103400000D03*
%TD*%
D29*
%TO.C,C2*%
X158855000Y-101400000D03*
X158855000Y-102950000D03*
%TD*%
D30*
%TO.C,U1*%
X160505000Y-103312500D03*
X162405000Y-103312500D03*
X161455000Y-101037500D03*
%TD*%
D31*
%TO.C,C6*%
X147400000Y-93120000D03*
X147400000Y-94080000D03*
%TD*%
D32*
%TO.C,JP1*%
X140250000Y-87400000D03*
X140250000Y-86100000D03*
%TD*%
D33*
%TO.C,Y1*%
X131250000Y-94150000D03*
X131250000Y-97850000D03*
%TD*%
D34*
%TO.C,C1*%
X162230000Y-105175000D03*
X160680000Y-105175000D03*
%TD*%
D35*
%TO.C,J2*%
X162860000Y-79800000D03*
D36*
X160320000Y-79800000D03*
X157780000Y-79800000D03*
X155240000Y-79800000D03*
X152700000Y-79800000D03*
X150160000Y-79800000D03*
X147620000Y-79800000D03*
X145080000Y-79800000D03*
X142540000Y-79800000D03*
X140000000Y-79800000D03*
X137460000Y-79800000D03*
X134920000Y-79800000D03*
X132380000Y-79800000D03*
X129840000Y-79800000D03*
X127300000Y-79800000D03*
%TD*%
D19*
%TO.C,H4*%
X123000000Y-112000000D03*
%TD*%
D35*
%TO.C,J3*%
X162820000Y-112000000D03*
D36*
X160280000Y-112000000D03*
X157740000Y-112000000D03*
X155200000Y-112000000D03*
X152660000Y-112000000D03*
X150120000Y-112000000D03*
X147580000Y-112000000D03*
X145040000Y-112000000D03*
X142500000Y-112000000D03*
X139960000Y-112000000D03*
X137420000Y-112000000D03*
X134880000Y-112000000D03*
X132340000Y-112000000D03*
X129800000Y-112000000D03*
X127260000Y-112000000D03*
%TD*%
D18*
%TO.C,C11*%
X131170000Y-99600000D03*
X132130000Y-99600000D03*
%TD*%
M02*
