%TF.GenerationSoftware,KiCad,Pcbnew,7.0.6-1.fc38*%
%TF.CreationDate,2023-08-06T10:31:57+03:00*%
%TF.ProjectId,stm32-breakout,73746d33-322d-4627-9265-616b6f75742e,v.1.0*%
%TF.SameCoordinates,Original*%
%TF.FileFunction,Soldermask,Bot*%
%TF.FilePolarity,Negative*%
%FSLAX46Y46*%
G04 Gerber Fmt 4.6, Leading zero omitted, Abs format (unit mm)*
G04 Created by KiCad (PCBNEW 7.0.6-1.fc38) date 2023-08-06 10:31:57*
%MOMM*%
%LPD*%
G01*
G04 APERTURE LIST*
%ADD10C,2.200000*%
%ADD11O,0.800000X0.800000*%
%ADD12O,1.800000X1.150000*%
%ADD13O,2.000000X1.450000*%
%ADD14R,1.700000X1.700000*%
%ADD15O,1.700000X1.700000*%
G04 APERTURE END LIST*
D10*
%TO.C,H1*%
X167200000Y-79800000D03*
%TD*%
%TO.C,H2*%
X167200000Y-112000000D03*
%TD*%
D11*
%TO.C,J1*%
X165250000Y-97217500D03*
X165250000Y-92217500D03*
D12*
X168000000Y-98592500D03*
D13*
X164200000Y-98442500D03*
X164200000Y-90992500D03*
D12*
X168000000Y-90842500D03*
%TD*%
D10*
%TO.C,H3*%
X123000000Y-79800000D03*
%TD*%
D14*
%TO.C,J2*%
X162860000Y-79800000D03*
D15*
X160320000Y-79800000D03*
X157780000Y-79800000D03*
X155240000Y-79800000D03*
X152700000Y-79800000D03*
X150160000Y-79800000D03*
X147620000Y-79800000D03*
X145080000Y-79800000D03*
X142540000Y-79800000D03*
X140000000Y-79800000D03*
X137460000Y-79800000D03*
X134920000Y-79800000D03*
X132380000Y-79800000D03*
X129840000Y-79800000D03*
X127300000Y-79800000D03*
%TD*%
D10*
%TO.C,H4*%
X123000000Y-112000000D03*
%TD*%
D14*
%TO.C,J3*%
X162820000Y-112000000D03*
D15*
X160280000Y-112000000D03*
X157740000Y-112000000D03*
X155200000Y-112000000D03*
X152660000Y-112000000D03*
X150120000Y-112000000D03*
X147580000Y-112000000D03*
X145040000Y-112000000D03*
X142500000Y-112000000D03*
X139960000Y-112000000D03*
X137420000Y-112000000D03*
X134880000Y-112000000D03*
X132340000Y-112000000D03*
X129800000Y-112000000D03*
X127260000Y-112000000D03*
%TD*%
M02*
